<svg width="64" height="64" viewBox="0 0 24 24" fill="none" xmlns="http://www.w3.org/2000/svg">
  <defs>
    <linearGradient id="g" x1="0" y1="0" x2="1" y2="1">
      <stop offset="0%" stop-color="#2c5a74"/>
      <stop offset="100%" stop-color="#7db7d4"/>
    </linearGradient>
  </defs>
  <rect width="24" height="24" rx="12" fill="url(#g)"/>
  <path d="M12 5c-4.6 0-8.6 3-10 7 1.4 4 5.4 7 10 7s8.6-3 10-7c-1.4-4-5.4-7-10-7zm0 11a4 4 0 1 1 0-8 4 4 0 0 1 0 8zm0-2.5a1.5 1.5 0 1 0 0-3 1.5 1.5 0 0 0 0 3z" fill="#ffffff"/>
</svg>
