<svg clip-rule="evenodd" fill-rule="evenodd" stroke-linejoin="round" stroke-miterlimit="2" viewBox="0 0 242 60" xmlns="http://www.w3.org/2000/svg"><g transform="scale(1.00833 .983607)"><path d="m0 0h240v61h-240z" fill="none"/><g fill-rule="nonzero"><path d="m91 1.333c0-.748-.629-1.356-1.397-1.332-26.987.82-48.603 22.671-48.603 49.499s21.616 48.679 48.603 49.499c.768.024 1.397-.584 1.397-1.332 0-.737-.606-1.324-1.341-1.347-25.503-.79-45.938-21.447-45.938-46.82s20.435-46.03 45.938-46.82c.735-.023 1.341-.61 1.341-1.347z" fill="#c8d8eb" transform="matrix(.60169996 0 0 .6161613 -.165483 -.000127)"/><g fill="#003a70" transform="matrix(.60169996 0 0 .6161613 .000761 -.000127)"><path d="m63.061 35.5h-5.062v28h5.624v-19.6c.056 0 5.35 7.419 6.02 8.225h5.624c.67-.806 6.052-8.225 6.108-8.225v19.6h5.624v-28h-5.062l-8.774 11.76h-1.272z"/><path d="m0 63.5h5.686v-11.375h9.667l7.222 11.375h6.425l-6.425-10.192c-.228-.392-.676-.735-1.074-1.183 4.492-.448 7.499-3.745 7.499-8.225 0-5.04-3.412-8.4-8.529-8.4h-20.471zm5.686-16.52v-6.44h14.785c1.706 0 2.843 1.12 2.843 2.8v.84c0 1.68-1.137 2.8-2.843 2.8z"/><path d="m50.986 21.152c.935.421 1.27 1.552.806 2.466-3.984 7.853-6.211 16.626-6.211 25.882s2.227 18.029 6.211 25.882c.464.914.129 2.045-.806 2.466-.629.284-1.368.164-1.875-.304-7.426-6.845-12.111-16.872-12.111-28.044s4.685-21.199 12.111-28.044c.507-.468 1.246-.588 1.875-.304z"/></g><path d="m3241.82 869.738c-4.05 0-7.02 2.97-7.02 7.02s2.97 7.02 7.02 7.02 7.02-2.97 7.02-7.02-2.97-7.02-7.02-7.02zm134.19 0c-4.05 0-7.02 2.97-7.02 7.02s2.97 7.02 7.02 7.02 7.02-2.97 7.02-7.02-2.97-7.02-7.02-7.02zm-16.47 11.61c-2.27 0-3.78-.756-3.78-1.89h-2.7c0 2.592 2.59 4.32 6.48 4.32 4.21 0 6.48-1.539 6.48-4.401 0-2.754-1.89-3.969-6.34-3.969-2.57 0-3.65-.405-3.65-1.431 0-1.188 1.21-1.809 3.51-1.809 2.11 0 3.51.756 3.51 1.89h2.7c0-2.592-2.48-4.32-6.21-4.32-4.05 0-6.21 1.485-6.21 4.239 0 2.727 1.84 3.861 6.1 3.861 2.7 0 3.89.459 3.89 1.539 0 1.269-1.32 1.971-3.78 1.971zm41.47 2.16 1.11-2.7h7.13l1.1 2.7h2.92l-5.53-13.5h-4.06l-5.53 13.5zm-51.19-11.07v-2.43h-13.23v13.5h13.23v-2.43h-10.53v-3.105h7.83v-2.43h-7.83v-3.105zm34.83 0h5.4v11.07h2.7v-11.07h5.4v-2.43h-13.5zm-106.11-2.43h-2.43v13.5h2.7v-9.45h.05s.27.864.76 1.512l1.89 2.538h2.7l1.89-2.538c.49-.648.76-1.512.76-1.512h.05v9.45h2.7v-13.5h-2.43l-4.21 5.67h-.19zm51.3 13.5h2.43v-13.5h-2.7v9.315l-8.37-9.315h-2.43v13.5h2.7v-9.315zm-33.21 0v-13.5h-2.7v13.5zm15.39 0h2.43v-13.5h-2.7v9.315l-8.37-9.315h-2.43v13.5h2.7v-9.315zm-56.84-7.965v-3.105h10.27v-2.43h-12.96v13.5h2.69v-5.535h7.56v-2.43zm120.83 5.67c-2.43 0-4.18-1.89-4.18-4.455s1.75-4.455 4.18-4.455 4.19 1.89 4.19 4.455-1.76 4.455-4.19 4.455zm-134.19 0c-2.43 0-4.18-1.89-4.18-4.455s1.75-4.455 4.18-4.455 4.19 1.89 4.19 4.455-1.76 4.455-4.19 4.455zm161.3-2.835 2.43-5.94h.27l2.43 5.94zm12.34-8.285h.53l.93 1.215h.04l.92-1.215h.53v2.892h-.59v-2.024h-.01s-.06.185-.17.324l-.41.543h-.59l-.41-.543c-.11-.139-.16-.324-.16-.324h-.02v2.024h-.59zm-2.62.521h-1.17v-.521h2.94v.521h-1.18v2.371h-.59zm-3.7-16.441c-2.19 0-3.78-1.755-3.78-4.185v-7.02h-2.7v7.02c0 3.888 2.75 6.75 6.48 6.75s6.48-2.862 6.48-6.75v-7.02h-2.7v7.02c0 2.43-1.59 4.185-3.78 4.185zm-16.61.135c-2.26 0-3.78-.756-3.78-1.89h-2.7c0 2.592 2.6 4.32 6.48 4.32 4.22 0 6.48-1.539 6.48-4.401 0-2.754-1.89-3.969-6.34-3.969-2.57 0-3.65-.405-3.65-1.431 0-1.188 1.22-1.809 3.51-1.809 2.11 0 3.51.756 3.51 1.89h2.7c0-2.592-2.48-4.32-6.21-4.32-4.05 0-6.21 1.485-6.21 4.239 0 2.727 1.84 3.861 6.11 3.861 2.7 0 3.88.459 3.88 1.539 0 1.269-1.32 1.971-3.78 1.971zm-34.29-11.61c-4.05 0-7.02 2.97-7.02 7.02s2.97 7.02 7.02 7.02 7.02-2.97 7.02-7.02-2.97-7.02-7.02-7.02zm-16.92 11.475c-2.43 0-4.19-1.89-4.19-4.455s1.76-4.455 4.19-4.455c2.02 0 3.59 1.296 4.05 3.24h2.88c-.54-3.429-3.29-5.805-6.93-5.805-4.06 0-7.02 2.97-7.02 7.02s2.96 7.02 7.02 7.02c3.64 0 6.39-2.376 6.93-5.805h-2.88c-.46 1.917-2.03 3.24-4.05 3.24zm160.7.135c-2.27 0-3.78-.756-3.78-1.89h-2.7c0 2.592 2.59 4.32 6.48 4.32 4.21 0 6.48-1.539 6.48-4.401 0-2.754-1.89-3.969-6.35-3.969-2.56 0-3.64-.405-3.64-1.431 0-1.188 1.21-1.809 3.51-1.809 2.1 0 3.51.756 3.51 1.89h2.7c0-2.592-2.49-4.32-6.21-4.32-4.05 0-6.21 1.485-6.21 4.239 0 2.727 1.83 3.861 6.1 3.861 2.7 0 3.89.459 3.89 1.539 0 1.269-1.32 1.971-3.78 1.971zm-28.22 2.16h2.43v-13.5h-2.7v9.315l-8.37-9.315h-2.43v13.5h2.7v-9.315zm-238.33 0h2.71v-5.535h4.58l3.43 5.535h3.05l-3.05-4.914c-.1-.189-.29-.432-.48-.648 2.13-.216 3.53-1.728 3.53-3.888 0-2.43-1.62-4.05-4.04-4.05h-9.73zm211.9 0 1.11-2.7h7.13l1.1 2.7h2.92l-5.54-13.5h-4.05l-5.53 13.5zm-158.57 0v-13.5h-2.7v13.5zm91.18 0h2.43v-13.5h-2.7v9.315l-8.37-9.315h-2.43v13.5h2.7v-9.315zm51.03-11.07h5.4v11.07h2.7v-11.07h5.4v-2.43h-13.5zm-11.07 11.07h10.8v-2.43h-8.1v-11.07h-2.7zm-153.68-11.07v-2.43h-13.23v13.5h13.23v-2.43h-10.54v-3.105h7.84v-2.43h-7.84v-3.105zm213.35 0h5.4v11.07h2.7v-11.07h5.4v-2.43h-13.5zm-167.02 11.07 1.1-2.7h7.13l1.11 2.7h2.92l-5.54-13.5h-4.05l-5.54 13.5zm-8.4 0h2.43v-13.5h-2.7v9.315l-8.37-9.315h-2.43v13.5h2.7v-9.315zm-34.97-11.07h5.4v11.07h2.71v-11.07h5.39v-2.43h-13.5zm89.02 8.775c-2.43 0-4.18-1.89-4.18-4.455s1.75-4.455 4.18-4.455 4.19 1.89 4.19 4.455-1.76 4.455-4.19 4.455zm-43.55-2.835 2.43-5.94h.27l2.43 5.94zm134.79 0 2.43-5.94h.27l2.43 5.94zm-211.3-2.835v-3.105h7.02c.81 0 1.35.54 1.35 1.35v.405c0 .81-.54 1.35-1.35 1.35z" fill="#101820" transform="matrix(.62452259 0 0 .63953238 -1951.629881 -521.569352)"/></g></g></svg>