<?xml version="1.0" encoding="UTF-8"?>
<svg id="VCU_Health" xmlns="http://www.w3.org/2000/svg" version="1.1" viewBox="0 0 604 89.86">
  <!-- Generator: Adobe Illustrator 29.8.1, SVG Export Plug-In . SVG Version: 2.1.1 Build 2)  -->
  <defs>
    <style>
      .st0 {
        fill: #fff;
      }

      .st1 {
        fill: #ffb300;
        stroke: #000;
        stroke-miterlimit: 10;
        stroke-width: .03px;
      }
    </style>
  </defs>
  <path d="M320.89,80.86V8.86h6.48v31.61h39.29V8.86h6.48v72h-6.48v-34.4h-39.29v34.4h-6.48ZM389.14,57.22c.2,10.67,5.09,19.65,17.35,19.65,7.08,0,12.96-5.09,14.46-11.97h6.28c-3.09,11.97-10.57,17.45-22.64,17.45-14.96,0-21.94-12.86-21.94-26.53s7.48-26.53,22.34-26.53c16.75,0,22.84,12.27,22.84,27.92h-38.69ZM421.36,51.74c-.7-9.67-5.88-16.95-16.26-16.95-9.77,0-14.96,8.18-15.76,16.95h32.02ZM466.81,45.56c-.6-8.18-4.79-10.77-11.87-10.77-6.28,0-11.47,1.89-12.27,8.68h-6.38c1.5-10.27,9.18-14.16,18.75-14.16,11.07,0,17.95,5.09,17.75,16.55v23.73c-.1,3.89.3,7.88.5,11.27h-6.18l-.2-7.38h-.2l-.3.7c-2.19,4.19-8.88,8.18-15.66,8.18-9.28,0-16.65-5.68-16.65-15.46,0-6.78,4.09-11.97,10.07-14.46,6.68-2.89,15.36-1.89,22.64-2.29v-4.59h0ZM451.85,76.87c13.06,0,15.56-10.77,14.96-21.24-8.48.3-26.23-1.3-26.23,11.27,0,6.78,5.19,9.97,11.27,9.97h0ZM491.83,80.86h-5.98V8.86h5.98v72ZM509.28,36.28h-9.97v-5.48h9.97v-10.67l5.98-2.59v13.26h11.37v5.48h-11.37v33.51c-.1,4.59,2.29,7.08,6.88,7.08,1.79,0,3.59-.1,5.19-.6v5.19c-1.9.5-4.09.9-6.08.9-12.67,0-11.97-8.08-11.97-14.86v-31.21h0ZM541.57,38.38h.2c3.49-6.18,9.18-9.07,15.66-9.07,16.35,0,17.65,14.46,17.65,20.24v31.31h-5.98v-32.31c0-8.68-4.99-13.76-13.16-13.76-9.87,0-14.36,8.28-14.36,17.25v28.82h-5.98V8.86h5.98v29.52h-.01ZM584.84,80.86v-7.94h-3.02v-1.06h7.27v1.06h-3.02v7.94h-1.23ZM590.51,71.86h2.21l2.54,7.42,2.61-7.42h2.06v9h-1.22v-8.1l-2.95,8.1h-1.18l-2.84-8.05v8.05h-1.21v-9h-.02Z"/>
  <path d="M91.49,8.86h22.04l16.35,52.16,17.25-52.16h19.85l-26.23,72h-23.83L91.49,8.86h0ZM231.61,31.49c-.1-2.69-.2-9.17-5.98-15.36-5.68-5.98-14.56-8.78-26.23-8.78-10.47,0-19.95,2.2-27.33,10.57-6.78,7.68-9.08,17.55-9.08,27.42,0,7.48,1.4,18.95,9.28,27.32,7.98,8.38,20.35,9.57,27.32,9.57,9.37,0,32.31-1.9,32.41-24.43h-20.74c-.4,2.79-1.49,10.47-12.07,10.47-15.46,0-15.56-18.15-15.56-22.54,0-13.17,3.69-24.24,15.76-24.24,5.68,0,10.77,2.7,11.67,9.97h20.54v.03ZM237.09,8.86v40.99c0,11.77.1,32.91,34.11,32.91,9.07,0,21.94-1.69,28.92-10.27,4.49-5.29,5.59-13.96,5.59-21.94V8.87h-19.45v42.08c0,7.18-1.7,17.45-14.36,17.45-4.89,0-9.58-1.9-12.27-5.88-1.99-2.99-2.29-6.98-2.29-10.87V8.87h-20.25Z"/>
  <g>
    <path class="st1" d="M44.93,77.93c-18.23,0-33-14.77-33-33S26.71,11.93,44.93,11.93s33,14.78,33,33-14.78,33-33,33"/>
    <path class="st0" d="M44.93,0C20.12,0,0,20.12,0,44.93s20.12,44.93,44.93,44.93,44.93-20.11,44.93-44.93S69.74,0,44.93,0ZM44.93,77.48c-17.98,0-32.55-14.57-32.55-32.55S26.95,12.38,44.93,12.38s32.55,14.58,32.55,32.55-14.57,32.55-32.55,32.55Z"/>
    <path d="M35.34,20.3c0,.42-1.29.41-1.29.41l-7.69-.41,7.69-.41s1.29-.01,1.29.41ZM48.33,17.7c.32.08.43.17.57.48l1.98,4.62c.14.33.22.41.3.41.09,0,.13-.05.21-.26l2.16-4.77c.22-.47.54-.43.54-.61,0-.13-.11-.11-.28-.11-.22,0-.45.03-.67.03s-.45-.03-.68-.03c-.1,0-.33-.03-.33.13,0,.28.8-.02.8.73,0,.13-.02.4-.25.94l-1.09,2.41c-.03.06-.06.17-.11.17s-.09-.11-.11-.17l-1.03-2.56c-.2-.48-.3-.86-.3-1.09,0-.33.48-.22.48-.43,0-.13-.04-.13-.3-.13-.13,0-.36.03-.87.03-.27,0-.54-.03-.8-.03-.12,0-.36-.06-.36.13,0,.06.1.1.13.11h0ZM36.59,18.86l-.11,3.19c-.03.83-.68.63-.68.92,0,.05.03.11.15.11s.4-.03.79-.03.53.03.82.03c.22,0,.19-.1.19-.13,0-.33-.87.14-.83-1.22l.08-2.22c0-.06,0-.2.05-.2.03,0,.06.09.09.13l1.54,3.42c.04.09.08.22.2.22s.16-.12.2-.22l1.5-3.14c.12-.26.22-.42.25-.42.05,0,.05.12.06.36l.12,2.41c.05.88-.57.62-.57.89,0,.14.2.12.37.12.18,0,.37-.03.89-.03.23,0,.45.03.69.03.28,0,.38,0,.38-.14,0-.29-.73.06-.77-.98l-.13-3.52c-.03-.91.75-.61.75-.89,0-.06-.02-.1-.23-.1s-.37.03-.52.03c-.12,0-.27-.03-.46-.03-.15,0-.18.1-.2.16l-1.84,3.84s-.08.17-.13.17-.07-.06-.1-.13l-1.75-3.81c-.11-.24-.19-.23-.28-.23-.26,0-.55.03-.74.03-.25,0-.37-.03-.48-.03-.06,0-.1.06-.1.11,0,.35.85-.02.8,1.29h0ZM45.37,23.14c1.69,0,2.53-1.2,2.53-1.51,0-.05-.07-.09-.11-.09-.21,0-.75,1.04-1.98,1.04-1.52,0-2.15-1.57-2.15-2.69s.65-2.18,1.81-2.18c.92,0,1.62.69,2.02,1.46.05.1.11.27.24.27.14,0,.11-.18.1-.26l-.14-1.51s-.05-.05-.1-.05c-.11,0-.12.26-.27.26-.24,0-.85-.48-1.81-.48-2,0-2.82,1.76-2.82,3.09,0,.63.36,2.66,2.68,2.66h0ZM55.37,20.71l7.69-.41-7.69-.41s-1.29-.01-1.29.41,1.29.41,1.29.41ZM36.19,69.81l-7.69.41,7.69.41s1.29,0,1.29-.41-1.29-.41-1.29-.41ZM44.08,72.69c0,.26-.54.44-.87.44-.65,0-.91-.52-1.17-1l-.69-1.3c-.19-.36-.34-.44-.75-.44s-.39.06-.39.34v1.42c0,.88.81.54.81.84,0,.07-.07.12-.25.12-.14,0-.36-.04-.71-.04-.44,0-.85.04-1.26.04-.09,0-.26.03-.26-.14,0-.26.66,0,.66-1.03v-3.61c0-.92-.89-.61-.89-.91,0-.08.08-.12.18-.12.38,0,.44.03.96.03.55,0,1.11-.03,1.66-.03,1.8,0,1.96,1.16,1.96,1.54,0,.53-.24.83-.47,1.03-.24.19-.48.26-.48.34,0,.05.7,1.24,1.29,2.28.07.12.23.12.3.12.08,0,.16-.04.25-.04.08,0,.12.04.12.11h0ZM42.07,69.08c0-.81-.46-1.41-1.29-1.41-.31,0-.56,0-.56.49v1.66c0,.2.3.2.55.2,1.25,0,1.3-.46,1.3-.95h0ZM46.73,67.31c-.58,0-1.17.03-1.28.03-.62,0-1.08-.03-1.13-.03-.19,0-.23.11-.23.16,0,.31.86-.03.86.84v3.61c0,1.03-.66.85-.66,1.08,0,.14.15.12.18.12.05,0,.68-.03,1.01-.03.18,0,.54.03,1.12.03.11,0,.2.02.2-.12,0-.29-.83.02-.83-1v-3.81c0-.37.13-.53.5-.53,1.27,0,1.35,1.2,1.34,1.41,0,.22-.08,1.14-1.07,1.14-.18,0-.32-.05-.39-.05-.1,0-.11.1-.11.16,0,.03.04.24.84.24.98,0,1.74-.62,1.74-1.65,0-1.2-1.02-1.61-2.07-1.59h-.02ZM51.31,72.11v-3.92c0-.78.62-.49.62-.76,0-.1-.04-.12-.29-.12-.47,0-.76.04-1.06.04s-.61-.04-.93-.04c-.07,0-.28-.03-.28.12,0,.28.93.06.93.8v3.94c0,.78-.59.56-.59.85,0,.04.02.1.09.1.21,0,.57-.04.92-.04.64,0,.94.04,1.25.04.19,0,.26-.04.26-.12,0-.26-.92.11-.92-.9h0ZM52.65,70.22c0,.42,1.29.41,1.29.41l7.69-.41-7.69-.41s-1.29,0-1.29.41ZM88.18,44.93c0,23.89-19.37,43.26-43.25,43.26S1.67,68.82,1.67,44.93,21.04,1.67,44.93,1.67s43.25,19.37,43.25,43.26ZM19.06,25.17h16.52c.09,0,.12.05.12.1v1.32h18.45v-1.32c0-.05.03-.1.12-.1h16.52c-5.95-7.78-15.32-12.79-25.87-12.79s-19.92,5.02-25.87,12.79h0ZM43.47,28.91c0-.31.2-.65-.02-.84-.34-.28-.71.04-1.99.08-1.06.02-2.04-.37-2.08-.34-.05.03.34,1.41,2.42,1.93,1.6.4,3.07.39,3.07.39h0s1.47,0,3.06-.39c2.08-.52,2.47-1.9,2.42-1.93s-1.02.36-2.08.34c-1.27-.03-1.65-.36-1.98-.08-.23.19-.03.53-.02.84,0,.29-.23.54-.56.53-.2,0-.33-.12-.39-.2.16-.13.27-.33.27-.55,0-.4-.32-.72-.72-.72s-.71.32-.71.72c0,.22.1.42.26.55-.06.08-.19.2-.39.2-.33,0-.56-.24-.56-.53ZM35.01,31.44v1.12h19.84v-1.12h-19.84ZM16.57,60.91l3.99-29.5,14.46.02-.14-1.01-13.87-.02s-.04-.63-.04-.79c0-.83-.45-1.41-.45-1.41l-1.76-2.25v-.37c-4.01,5.41-6.37,12.1-6.37,19.35,0,5.81,1.52,11.26,4.19,15.98h0ZM31.57,34.94c.2-.42.7-.76.7-.76v-.25s-.03-.15-.18-.15h-1.87c-.54.83-1.56,1.38-3.12,1.38s-2.58-.55-3.12-1.38h-1.82c-.1,0-.14.13-.14.13v.26s.59.35.83.75c.25.39.26.91.26.91h8.25s-.02-.47.19-.9h.02ZM69.98,65.71l-3.24-29.1h-8.15l.38,29.22h-3.22l-.91-1.39v-29.63h-19.83v29.62l-.91,1.39h-3.22l.38-29.22h-8.14l-3.25,29.1c5.97,7.19,14.98,11.77,25.06,11.77s19.08-4.58,25.05-11.77h0ZM58.47,35.84h8.25s.02-.52.27-.91c.25-.4.83-.75.83-.75v-.26s-.03-.13-.14-.13h-1.82c-.54.83-1.57,1.38-3.12,1.38s-2.59-.55-3.12-1.38h-1.87c-.15,0-.18.15-.18.15v.25s.5.34.71.76c.21.42.19.9.19.9h0ZM77.48,44.93c0-7.25-2.37-13.94-6.38-19.35v.38l-1.76,2.25s-.45.59-.45,1.41c0,.16-.04.79-.04.79l-13.86.02-.14,1.01,14.45-.02,3.99,29.5c2.67-4.72,4.19-10.18,4.19-15.99h0ZM42.27,62.92c.11-.07.11-.23.11-.23l-.18-20.22c-.23-.17-.77-.4-2.03-.4s-1.84.26-2.05.42l-.22,20.2s-.02.16.1.23c.12.08.58.25,2.13.25s2.01-.19,2.13-.26h.01ZM38.13,41.05c.33-.18.92-.37,2.04-.37s1.69.18,2.01.35v-.23s-.06-2.19.39-3.15c.25-.53.65-.61.65-.61l.02-.25s-.61-.7-3.09-.7-3.07.82-3.07.82l-.02.2s.49.06.7.55c.29.66.37,3.21.37,3.21,0,0,0,.18,0,.18ZM49.57,42.07c-1.26,0-1.8.24-2.03.4l-.18,20.22s0,.16.11.23c.12.07.59.26,2.14.26s2.02-.18,2.13-.25c.12-.08.1-.23.1-.23l-.21-20.2c-.21-.17-.75-.42-2.06-.42h0ZM47.16,37.66c.45.96.39,3.15.39,3.15v.23c.33-.18.93-.35,2.02-.35s1.71.19,2.04.37v-.18s.08-2.55.37-3.21c.21-.49.7-.55.7-.55l-.02-.2s-.59-.82-3.07-.82-3.09.7-3.09.7l.02.25s.4.09.65.61h-.01ZM65.19,37.99l2.63,25.3s0,.19-.19.19h-6.47c-.18,0-.16-.19-.16-.19l-.67-25.3s.02-.13.13-.13h4.59c.13,0,.14.13.14.13ZM66.74,62.25l-2.3-23.44s-.03-.11-.12-.11h-3.2c-.1,0-.14.12-.14.12l.7,23.45s0,.18.14.18h4.74c.2,0,.17-.2.17-.2h0ZM28.7,63.49h-6.47c-.2,0-.19-.19-.19-.19l2.63-25.3s0-.13.14-.13h4.59c.12,0,.14.13.14.13l-.68,25.3s.02.19-.16.19ZM28.17,62.28l.7-23.45s-.03-.12-.14-.12h-3.2c-.09,0-.12.11-.12.11l-2.3,23.44s-.02.2.17.2h4.74c.16,0,.14-.18.14-.18h.01Z"/>
    <path class="st0" d="M51.28,6.02c.08-.42.18-1.06-.17-1.18-.25-.09-.42-.2-.39-.34.03-.13.17-.11.34-.07.64.22,1.3.33,1.95.47.65.14,1.32.2,1.98.34.19.04.37.08.33.25-.04.19-.11.37-.15.55-.04.19-.05.38-.08.57-.02.09-.06.16-.19.13-.13-.03-.13-.18-.12-.26.05-.54-.15-.82-1.14-1.03l-.55-.11c-.24-.05-.32.02-.38.35l-.31,1.49c-.03.13.11.21.45.28.49.1.9.03,1.11-.3.14-.22.18-.24.27-.22.12.03.1.15.08.27-.05.25-.14.5-.19.76s-.07.52-.12.77c-.03.12-.05.24-.21.2-.13-.03-.07-.28-.14-.47-.14-.39-.37-.5-.87-.6-.41-.08-.51,0-.55.22l-.3,1.45c-.13.63-.04.74.41.84.89.18,1.44.02,1.79-.21.34-.22.49-.49.62-.46.1.02.12.1.1.19-.04.17-.17.49-.27.64-.18.32-.65.65-1.05.57-.57-.12-1.12-.3-1.7-.42-.56-.12-1.15-.17-1.72-.29-.26-.05-.39-.08-.36-.22s.21-.16.38-.2c.31-.08.4-.27.5-.76l.66-3.2h0ZM58.73,8.57s.16-.18.21-.16c.06.03.07.1.08.22l.11,1.32c0,.16,0,.32,0,.37-.02.03-.12,0-.38-.09l-.87-.35c-.2-.08-.33-.16-.3-.23,0-.02.08-.1.18-.19l.97-.89ZM55.62,10.85c-.11.1-.22.17-.39.21-.14.04-.37,0-.42.13-.05.13.04.17.16.21.27.11.57.16.85.26.27.11.52.28.8.39.13.05.22.09.27-.04s-.22-.31-.42-.47c-.15-.12-.29-.35-.24-.47.14-.35.69-1.07,1.1-.91l1.24.49c.39.16.53.25.6.4.07.17.04.96-.04,1.16-.09.21-.29.34-.51.3-.12-.04-.24,0-.28.1-.02.05,0,.12.12.17.39.16.8.25,1.15.39.36.14.71.36,1.1.51.13.05.21.08.26-.04.05-.13-.06-.2-.25-.35-.27-.21-.23-.64-.25-1.01l-.26-5.19c0-.12-.03-.21-.06-.22-.07-.03-.14.03-.33.19l-4.17,3.78h-.03ZM62.37,13.3c-.15.25-.35.5-.7.51-.23,0-.35-.05-.43.06-.07.12.07.2.24.31.27.17.58.28.86.45.49.3,1.47.99,1.96,1.3.57.35,1.45.25,1.83-.36.1-.16.12-.34,0-.4-.18-.12-.41.08-.82.17-.4.09-.98.06-1.75-.42-.38-.23-.42-.35-.08-.91l1.98-3.2c.15-.24.41-.47.76-.38.09.02.24.06.31-.06.07-.12-.04-.19-.14-.25-.28-.17-.67-.33-1.03-.55s-.68-.5-1.04-.72c-.08-.05-.17-.03-.22.05-.06.1-.04.2.06.26.31.19.47.5.18.96l-1.98,3.2v-.02ZM67.3,16.71c-.43.53-.88.15-1.19.07-.1-.03-.2-.14-.32,0-.09.11,0,.17.07.24.4.33.85.61,1.26.95.41.34.77.73,1.17,1.05.08.07.16.13.25.02.12-.15,0-.22-.05-.31-.14-.28-.6-.65-.16-1.18l2.56-3.11c.18-.22.36-.2.73.1.64.53.89.82.51,1.62-.03.05,0,.1.07.16.05.04.14.07.18.03s.08-.11.11-.16l.5-.74c.17-.24.16-.28,0-.42-.67-.55-1.41-1.07-2.09-1.63-.69-.56-1.32-1.17-2-1.74-.15-.12-.21-.12-.33,0l-.62.63c-.07.07-.16.15-.21.21-.04.04-.04.11.05.18.07.06.13.08.17.04.71-.53,1.05-.34,1.69.19.32.26.44.45.24.69l-2.57,3.11h-.02ZM73.79,19.65c-.14-.17-.13-.31,0-.42l.92-.76c.22-.18.54-.32.84-.12.07.05.2.13.31.05.11-.09.02-.19-.06-.28-.22-.26-.5-.49-.72-.76-.22-.26-.39-.58-.61-.84-.16-.19-.32-.39-.43-.3-.11.09-.11.18-.04.27.21.3.28.62-.13.97l-3,2.5c-.22.18-.54.32-.84.12-.08-.05-.2-.14-.31-.05s-.02.19.06.28c.22.27.5.49.72.76.22.27.39.58.61.85.16.19.32.39.43.3.11-.09.11-.18.04-.27-.21-.3-.28-.62.13-.97l1.29-1.08c.09-.08.23-.16.32-.05l1.36,1.63c.16.19.19.25-.03.43l-1.28,1.07c-.22.18-.54.31-.84.12-.07-.05-.2-.14-.31-.05s-.02.19.06.28c.22.27.5.49.72.76.22.27.39.58.61.85.16.19.32.38.43.29.11-.09.11-.18.04-.27-.21-.3-.28-.62.13-.97l3-2.5c.26-.22.6-.28.84-.12.08.05.2.14.31.05s.02-.19-.05-.28c-.22-.26-.49-.49-.72-.75-.22-.27-.39-.58-.61-.84-.16-.2-.32-.39-.43-.3-.11.09-.11.18-.04.28.21.29.28.62-.13.97l-.92.76c-.15.13-.28.09-.47-.14l-1.2-1.44v-.03ZM77.8,27.52c-1.51.66-1.75,1.78-1.11,3.23.79,1.8,2.09,2.31,3.85,1.54l1.69-.74c.69-.3.86-.3,1.06-.11.12.11.19.25.32.19.09-.04.11-.08.04-.24-.11-.24-.24-.46-.35-.7s-.18-.49-.28-.73c-.09-.2-.16-.28-.26-.24-.12.05-.13.2-.08.34.17.44,0,.76-.4.94l-2.03.89c-.88.39-2.17.54-2.79-.88-.43-.98-.04-1.89.89-2.3l2.47-1.09c.29-.12.59-.11.83.09.12.1.2.2.3.16.08-.04.11-.1.03-.29-.14-.32-.34-.61-.48-.93s-.22-.66-.36-.98c-.17-.39-.24-.44-.35-.4-.1.04-.14.14-.09.24.14.33.1.68-.4.9l-2.5,1.1h0ZM79.84,39.33c-.17.26-.33.53-.31.62.03.1.13.11.51.03l4.08-.9c.47-.1.74-.03,1.07.36.1.11.16.2.3.17.13-.03.11-.12.1-.21-.06-.3-.2-.58-.26-.88-.06-.3-.06-.61-.12-.9-.04-.15-.07-.31-.2-.28-.14.03-.15.27-.15.5,0,.55-.51.7-1.07.82l-1.92.42c-.12.03-.24.04-.26-.03,0-.05.08-.19.17-.33l2.68-4.02c.07-.1.08-.16.04-.35-.06-.25-.15-.5-.2-.76-.06-.26-.08-.52-.13-.77,0-.06-.03-.11-.16-.08-.14.03-.14.15-.21.46-.08.35-.52.57-.85.65l-3.19.69c-.46.1-.74.02-1.07-.37-.1-.11-.16-.2-.3-.17s-.12.12-.1.21c.07.29.19.58.26.88.06.3.06.6.13.9.03.15.08.35.25.32.16-.04.08-.31.1-.54.04-.43.32-.65.74-.74l3.03-.66c.2-.05.23-.03.24.02,0,.04-.11.26-.25.47l-2.92,4.45-.03.02ZM84.71,42.9c.29-.02.61-.03.74.31.03.08.09.32.23.31.14,0,.13-.14.12-.26-.02-.35-.12-.69-.14-1.03-.02-.35.02-.7,0-1.05-.02-.25-.03-.5-.17-.49-.14,0-.19.08-.19.2,0,.37-.14.67-.68.7l-3.89.26c-.29.02-.62-.02-.75-.35-.03-.08-.08-.23-.22-.22-.14,0-.13.14-.12.3.02.34.11.69.14,1.03s-.02.69,0,.96c0,.25.03.5.17.5s.19-.09.2-.2c0-.19.14-.68.67-.71,0,0,3.89-.26,3.89-.26ZM81.56,48.21c-.15-.08-.22-.13-.21-.18,0-.05.08-.07.38-.18l2.78-1.02c.16-.06.35-.14.51-.13.2.02.37.05.41.32.03.14.05.28.19.29s.15-.15.16-.21c.03-.39-.02-.78,0-1.17.03-.39.12-.77.15-1.16,0-.12,0-.21-.13-.22-.14,0-.15.09-.22.2-.1.14-.2.39-.62.54l-4.95,1.84c-.29.11-.39.16-.4.3,0,.1,0,.2.45.44l4.11,2.22c.5.27.73.39.91.6.15.19.14.37.28.38.14.01.15-.11.15-.19.02-.29-.03-.59,0-.89.02-.3.11-.59.13-.88,0-.08,0-.19-.13-.2-.09,0-.14.05-.22.18-.14.22-.18.47-.31.6-.07.07-.17.1-.33.09-.13,0-.3-.09-.53-.21l-2.55-1.34v-.02ZM21.29,17.31c.28.39.33.66.1,1.12-.06.13-.12.23-.04.34.08.11.16.06.23,0,.25-.18.45-.41.7-.59.25-.18.53-.3.78-.47.07-.05.19-.14.11-.25s-.19-.1-.34-.07c-.62.16-.98-.13-1.3-.57l-1.33-1.86c-.1-.13-.1-.17-.06-.2.05-.04.17.03.28.1l3.52,2.01c.09.04.17.09.26.03.09-.06.09-.21.06-.34l-.66-3.89c-.04-.25-.07-.38-.02-.41.03-.02.12.1.18.17l1.61,2.26c.28.39.36.53.23.73-.1.15-.13.23-.05.34.08.11.22.01.36-.09.26-.23.54-.43.8-.66.3-.17.59-.37.89-.55.14-.1.28-.2.2-.31s-.17-.11-.36-.05c-.7.18-1.01-.18-1.43-.76l-1.79-2.5c-.3-.42-.24-.57-.04-.83.16-.23.26-.35.18-.47-.05-.08-.1-.1-.14-.07-.21.15-.4.33-.61.49-.21.15-.44.27-.65.42-.06.04-.07.07-.05.28l.57,4.06c.03.19.06.37.02.4-.02.02-.16-.07-.51-.26l-3.42-1.88c-.12-.06-.18-.05-.33.05-.21.15-.4.33-.62.49-.21.15-.44.27-.65.42-.06.04-.08.08-.01.18.08.11.19.06.51.01.35-.06.71.26.91.53l1.9,2.66h.01ZM31.4,12.46c-1.28.54-2.68-.93-3.14-2.02-.48-1.14-.25-2.43.7-2.83,1.28-.54,2.67.93,3.14,2.02.48,1.14.25,2.43-.7,2.83M29.12,7.12c-1.66.7-2.66,2.64-1.94,4.35.69,1.62,2.36,2.2,4,1.5,1.66-.7,2.79-2.54,2.03-4.34-.72-1.7-2.45-2.21-4.09-1.52M39.82,9.94c.25.17.52.34.61.32.1-.02.11-.13.04-.5l-.83-4.1c-.1-.47-.02-.74.38-1.07.11-.09.21-.16.18-.29-.03-.14-.12-.12-.21-.1-.3.06-.58.19-.88.25-.3.06-.61.05-.9.11-.16.03-.32.06-.29.2.03.13.27.15.5.15.55.01.69.52.8,1.08l.4,1.93c.02.12.04.24-.03.25-.05,0-.19-.07-.34-.17l-3.98-2.74c-.1-.07-.16-.08-.35-.04-.25.06-.5.14-.76.19-.25.05-.52.07-.77.12-.06,0-.11.02-.08.16.03.13.15.14.46.22.34.09.57.53.63.85l.66,3.21c.09.47,0,.74-.39,1.07-.11.1-.21.16-.18.3s.12.12.21.1c.3-.06.58-.19.88-.25.3-.06.61-.05.91-.11.15-.03.35-.07.32-.24-.03-.16-.31-.09-.53-.11-.44-.04-.64-.33-.73-.75l-.61-3.03c-.04-.2-.02-.23.02-.24.04,0,.25.12.47.26l4.41,2.99-.02-.02ZM43.35,9.72c.12.36.17.41.28.41.1,0,.16-.05.36-.46l1.25-2.59c.09-.18.12-.27.16-.27.03,0,.07.09.12.24l.94,2.77c.11.32.18.36.29.37.09,0,.16-.05.35-.51l1.7-4.18c.24-.59.27-.73.52-.95.18-.16.36-.16.36-.3s-.12-.14-.2-.14c-.3,0-.59.06-.89.05-.3,0-.59-.08-.89-.08-.09,0-.19,0-.19.14,0,.08.08.15.24.25.19.13.67.09.66.47,0,.19-.05.41-.14.66l-.84,2.24c-.06.16-.12.31-.18.31-.04,0-.05-.05-.09-.17l-.9-2.63c-.06-.16-.18-.45-.18-.59,0-.11.03-.28.27-.35.13-.04.27-.07.27-.2,0-.14-.08-.14-.23-.15-.34,0-.68.06-1.02.05-.34,0-.68-.08-1.01-.09-.11,0-.22,0-.23.14,0,.14.1.15.19.21.12.08.28.16.38.46l.45,1.4-.9,1.9c-.04.08-.09.18-.11.18s-.05-.08-.07-.16l-.94-2.85c-.1-.3-.18-.47-.18-.55,0-.16.04-.32.29-.39.13-.04.27-.07.27-.21s-.08-.14-.22-.14c-.34,0-.68.05-1.02.05s-.68-.08-1.01-.09c-.11,0-.22,0-.23.14,0,.14.1.15.2.21.12.08.27.16.37.46l1.73,4.94h.02ZM6.89,30.23s-.1,0-.13.08c-.07.23.21.24.14.45-.07.23-.73.78-1.01,1.69-.45,1.42-.09,3.23,2.21,3.96,1.77.55,3.23-.61,3.67-2,.54-1.74-.53-3.06-.78-3.14-.07-.03-.12-.01-.14.05-.04.13.09.31.15.44.3.57.46,1.33.24,2.03-.35,1.12-1.8,1.56-3.08,1.15-1.81-.57-2.16-1.52-1.83-2.57.23-.72.93-1.27,2.01-1.51.07-.02.3-.04.33-.14.03-.09-.07-.16-.16-.19-.1-.03-.29-.04-.45-.07l-1.16-.23h0ZM14.1,27.99c-.66,1.22-2.67.93-3.71.37-1.09-.59-1.71-1.75-1.22-2.64.67-1.22,2.67-.94,3.71-.37,1.09.59,1.71,1.75,1.22,2.65M8.99,25.24c-.86,1.58-.44,3.72,1.19,4.61,1.55.84,3.22.25,4.06-1.31.86-1.58.6-3.72-1.11-4.65-1.62-.88-3.29-.2-4.14,1.36M15.43,23.67c.36.31.47.56.37,1.06-.03.14-.07.25.04.34s.17.02.22-.05c.2-.23.35-.51.55-.74.2-.23.45-.41.65-.64.05-.06.15-.18.05-.27-.11-.09-.21-.06-.34.01-.56.31-.99.11-1.4-.25l-1.73-1.5c-.13-.11-.14-.14-.11-.18.04-.04.17-.01.3.03l3.89,1.13c.09.02.2.05.26-.03.07-.08.03-.22-.02-.35l-1.55-3.63c-.1-.23-.15-.35-.12-.4.02-.02.15.07.21.12l2.1,1.82c.36.31.47.43.4.65-.05.17-.07.26.03.35.11.09.22-.04.33-.17.2-.29.42-.55.63-.83.25-.24.48-.5.73-.74.11-.13.23-.26.12-.36-.11-.09-.19-.06-.36.04-.64.34-1.02.07-1.57-.4l-2.33-2.01c-.39-.34-.36-.5-.24-.8.1-.26.17-.41.06-.5-.07-.06-.12-.07-.15-.04-.17.2-.32.42-.48.62-.17.19-.37.37-.54.57-.05.05-.05.09.02.28l1.5,3.81c.07.18.15.34.11.38-.02.02-.17-.03-.55-.13l-3.77-1.02c-.13-.04-.19,0-.3.13-.17.2-.31.42-.48.61-.17.2-.37.37-.54.57-.05.06-.05.1.03.18.11.09.2.02.49-.11.33-.14.76.1,1.01.31l2.47,2.14h.01ZM15.58,72.28c-.23.21-.39.25-.69-.1-.5-.56-.29-1.24.17-1.66.65-.58,1.13-.58,1.65,0,.37.41.22.54.15.62l-1.28,1.14h0ZM19.59,70.48c.21-.19.53-.33.83-.15.08.05.21.13.31.03.1-.09.02-.19-.06-.28-.23-.26-.52-.47-.75-.73s-.41-.57-.64-.82c-.26-.3-.35-.36-.44-.29-.1.09-.1.18-.03.27.22.29.3.61-.23,1.09l-1.1.98c-.08.08-.16.06-.31-.11-.21-.24-.14-.49-.04-.78l.71-1.99c.13-.38.06-.72-.11-.91-.19-.21-.91-.94-1.19-.69-.07.06-.09.13-.02.2.05.06.13.11.2.19.05.06.06.14.05.27-.07.64-.72,2.52-.81,2.61-.07.06-.27-.1-.46-.16-.4-.13-.82-.14-1.26.25-1.07.95-.42,2,.35,2.86.26.29.74.72,1.05,1.07.41.46.52.68.65.83.14.16.2.15.27.09.1-.09.09-.18.04-.27-.21-.31-.29-.63.1-.97l2.91-2.6h-.02ZM13.29,62.72c.7-.43,1.14-.25,1.54.41.77,1.27-.45,2.42-1.53,3.08-1.18.72-2.38.91-3.14-.32-.34-.56-.54-1.16.19-2.5.03-.06.16-.25.11-.34-.04-.07-.13-.07-.25,0-.06.04-.21.17-.32.26l-.97.76s-.06.08-.03.13c.14.22.33,0,.44.2.06.1.07.99.61,1.88.9,1.47,2.85,1.91,4.43.94,1.5-.92,1.8-2.62.87-4.14-.58-.95-1.89-1.93-2.01-1.86l-1.08.66c-.25.15-.57.26-.84.02-.07-.06-.18-.16-.3-.09-.08.04-.09.12.01.29.18.29.41.56.59.86.18.3.32.62.5.92.19.31.28.42.38.36.12-.07.13-.16.09-.25-.16-.33-.21-.69.25-.98l.44-.27.02-.02ZM8.07,60.05c-.26.12-.58.23-.81-.04-.06-.07-.19-.26-.32-.21-.13.06-.08.18-.03.29.13.32.34.61.47.93.13.32.21.66.35.98.1.23.2.46.33.41.13-.05.16-.14.12-.25-.12-.34-.09-.68.4-.89l3.59-1.54c.26-.11.59-.19.82.08.06.06.16.19.28.13.13-.05.08-.17.01-.32-.14-.32-.34-.62-.48-.93-.13-.32-.21-.67-.32-.91-.1-.23-.2-.46-.32-.4-.13.05-.16.14-.12.25.06.18.1.69-.4.9l-3.59,1.54.02-.02ZM10.2,51.61c.16-.26.31-.54.29-.63-.03-.1-.14-.11-.51-.02l-4.05,1.02c-.47.12-.74.05-1.09-.33-.1-.11-.16-.2-.3-.17-.14.04-.11.13-.09.21.08.29.22.57.29.87.08.29.08.61.16.9.04.15.08.31.21.28.14-.04.14-.27.13-.51-.01-.55.49-.71,1.05-.85l1.91-.48c.12-.03.24-.05.25.02.01.05-.07.2-.16.34l-2.55,4.1c-.06.1-.07.16-.03.35.07.26.16.5.23.75.06.26.09.51.16.77.02.06.03.11.16.07.14-.03.13-.16.19-.47.07-.35.51-.59.83-.67l3.17-.8c.46-.11.74-.04,1.09.34.1.11.17.2.3.17.13-.03.11-.12.09-.21-.08-.3-.22-.57-.29-.87-.07-.3-.08-.61-.16-.9-.04-.15-.09-.35-.25-.31s-.08.32-.09.54c-.03.43-.3.66-.71.76l-3,.76c-.2.05-.24.03-.25,0-.01-.04.1-.26.24-.48l2.78-4.54h0ZM5.23,48.19c-.29.03-.61.04-.75-.28-.04-.09-.1-.31-.24-.3-.14.02-.13.14-.11.26.04.34.14.69.17,1.03.04.34,0,.7.03,1.04.02.25.05.5.19.49s.19-.09.19-.2c-.01-.37.11-.68.65-.73l3.89-.38c.28-.03.62,0,.76.33.04.08.09.22.23.21.14-.01.13-.14.11-.31-.03-.35-.14-.69-.17-1.03-.04-.34,0-.7-.03-.97-.02-.25-.05-.5-.19-.49s-.19.09-.19.2c0,.19-.11.68-.65.74l-3.88.38h-.01ZM6.06,43.86s-.22-.1-.22-.15c0-.06.06-.09.18-.15l1.21-.54c.14-.06.3-.12.35-.11.04,0,.05.11.04.38l-.04.93c0,.22-.04.36-.12.36-.03,0-.12-.04-.24-.11l-1.16-.62h0ZM9.24,46.04c.13.08.23.15.32.3.08.13.12.34.26.35.14,0,.15-.1.15-.22.01-.29-.04-.59-.03-.89.01-.29.09-.59.11-.88,0-.14,0-.24-.13-.24-.14,0-.22.31-.3.55-.06.18-.23.39-.36.39-.37-.02-1.24-.3-1.22-.74l.06-1.33c.02-.43.06-.59.18-.7.14-.12.89-.35,1.11-.34.23,0,.42.16.45.38,0,.13.08.23.18.23.05,0,.11-.04.12-.17.02-.41-.03-.83-.01-1.21.01-.38.1-.79.12-1.21,0-.14.01-.23-.13-.24-.14,0-.17.12-.25.35-.11.33-.53.43-.87.57l-4.81,1.96c-.11.05-.18.09-.19.13,0,.08.07.12.29.25l4.95,2.69v.02ZM24.7,75.65c.14-.1.22-.13.26-.11s.02.11-.02.43l-.42,2.92c-.03.17-.04.38-.12.51-.11.16-.22.3-.47.21-.13-.05-.27-.09-.35.03-.07.11.06.2.11.23.33.21.7.35,1.03.56.33.21.62.47.95.68.1.07.18.11.25,0,.07-.12,0-.17-.07-.29-.08-.16-.25-.36-.18-.8l.73-5.23c.04-.31.04-.42-.07-.5-.08-.05-.18-.09-.6.19l-3.9,2.56c-.48.32-.68.46-.95.52-.24.05-.39-.05-.46.07-.07.12.03.18.1.22.25.15.53.25.78.41s.46.37.71.53c.08.05.16.11.24,0,.05-.08.02-.16-.05-.28-.13-.23-.33-.38-.38-.56-.03-.1,0-.2.08-.34.07-.11.22-.22.43-.36l2.39-1.61h-.02ZM18.76,74.96c-.18.22-.41.46-.73.32-.09-.03-.29-.15-.38-.05-.09.11,0,.19.1.27.26.22.57.39.84.61.27.23.49.5.75.72.19.16.38.32.47.22.09-.11.07-.2,0-.28-.26-.26-.39-.56-.04-.98l2.52-2.98c.18-.22.44-.43.77-.29.08.04.22.1.31,0,.09-.11,0-.19-.14-.3-.26-.22-.57-.39-.84-.62-.26-.23-.49-.5-.69-.67-.19-.17-.38-.32-.47-.22-.09.11-.08.2,0,.28.13.14.4.56.05.98l-2.52,2.98h0ZM32.45,80.89c-.16-.15-.28-.27-.37-.38-.08-.1-.15-.19-.18-.28-.04-.08-.06-.19-.08-.32-.02-.13-.03-.31-.04-.53l-.06-.02c-.15.16-.28.28-.38.36s-.19.15-.28.18c-.08.04-.19.07-.32.08-.13.02-.31.03-.52.04l-.02.06c.16.15.28.27.36.37.09.11.15.2.18.28.04.08.06.19.08.32.02.13.04.31.04.53l.06.02c.15-.16.28-.28.38-.37.11-.09.2-.15.28-.18.08-.04.19-.07.32-.08.14-.02.31-.03.52-.04l.03-.06v.02ZM36.83,83.85c-.05.26-.32.45-.56.44-.22,0-.4,0-.42.13-.02.09.04.14.27.19.37.07.75.07,1.11.14.37.07.72.21,1.09.28.21.04.3.02.32-.08.03-.13-.2-.19-.33-.27-.27-.16-.42-.32-.35-.74l.91-4.74c.03-.13,0-.18-.11-.2-.07,0-.16.06-.22.09-.44.25-.96.24-1.44.27-.11,0-.33,0-.36.16-.03.14.06.18.17.19.09.02.18-.03.42.02.17.03.27.14.24.3l-.73,3.81h0ZM41.2,80.56c.04-.6.58-.79,1.02-.76.69.05,1.19.49,1.14,1.2-.03.42-.27.83-.74.8-.22-.02-1.49-.38-1.43-1.25M42.84,83.4c.39.19.54.45.5.93-.05.67-.79.88-1.23.84-.9-.06-1.34-.71-1.28-1.58.04-.56.36-.91.48-.9.06,0,.14.04.2.07l1.32.64h.01ZM44.15,80.89c.07-.93-.95-1.37-1.72-1.42-.98-.07-1.97.44-2.05,1.52-.04.57.15,1.02.55,1.37.06.06.14.11.14.13s-.1.03-.17.06c-.52.18-.85.59-.9,1.19-.08,1.15.83,1.7,1.84,1.77,1.16.08,2.3-.28,2.4-1.63.05-.77-.39-1.39-1.03-1.76-.06-.03-.16-.08-.16-.11,0-.04.13-.06.21-.09.52-.17.85-.4.89-1.03M46.61,80.12c.5-.03.78.33.81.8.03.54-.26,1.02-.7,1.3-.1.07-.31.15-.3.3,0,.11.05.17.16.16.11,0,.26-.06.37-.06.6-.04.89.46.92,1.01.05.78-.36,1.49-1.2,1.55-.78.05-.96-.39-1.19-.38-.09,0-.14.09-.14.17.02.27.87.66,1.59.61,1.27-.08,2.2-1.12,2.12-2.4-.05-.83-.5-1.31-1.31-1.32-.06,0-.08-.02-.08-.04,0-.03.02-.07.05-.09.41-.31.84-.74.8-1.28-.04-.68-.72-1.01-1.34-.97-.84.05-1.63.77-1.61,1.06,0,.07.1.1.15.1.2-.02.32-.48.89-.52M53.09,82.59c.42.08.63.29.73.77.12.65-.53,1.05-.96,1.14-.89.17-1.48-.33-1.65-1.2-.11-.55.11-.98.23-1,.06,0,.14,0,.21.02l1.44.27h0ZM50.76,80.28c-.11-.59.35-.92.78-1,.67-.14,1.28.16,1.42.86.08.41-.04.88-.5.97-.21.04-1.53.03-1.7-.82M53.7,79.82c-.18-.92-1.28-1.07-2.03-.92-.96.19-1.78.94-1.57,2.01.11.56.42.95.89,1.18.08.04.16.07.17.09,0,.02-.09.05-.15.1-.45.31-.67.79-.55,1.38.22,1.14,1.26,1.42,2.24,1.23,1.14-.22,2.14-.88,1.88-2.21-.15-.76-.74-1.24-1.46-1.43-.06,0-.18-.04-.18-.06,0-.04.11-.09.18-.14.46-.29.71-.61.59-1.22M80.43,51.81c-.48-.12-.67-.22-.74-.53-.04-.17-.06-.35-.19-.39-.13-.03-.17.09-.23.35-.14.56-.2,1.15-.34,1.71-.14.57-.34,1.12-.48,1.68-.1.4.22.88.54,1.07.15.1.46.25.64.29.08.02.17,0,.19-.09.03-.14-.23-.29-.44-.65-.21-.35-.36-.91-.15-1.79.11-.44.23-.53.85-.38l1.44.35c.21.05.3.15.2.56-.12.49-.23.72-.63.84-.19.06-.45,0-.47.13-.04.16.08.19.2.22.25.06.51.09.76.15.25.06.5.16.75.22.12.03.24.06.27-.07.02-.08,0-.12-.21-.27-.33-.22-.38-.63-.26-1.12.08-.33.16-.47.3-.44l1.47.35c.33.08.39.16.33.4l-.13.55c-.24.99-.52,1.18-1.06,1.11-.08,0-.24-.03-.27.11-.03.13.03.17.12.19.18.05.38.06.57.1.18.05.36.13.55.17.17.04.21-.12.26-.32.16-.65.25-1.32.41-1.97s.3-1.3.54-1.93c.04-.17.08-.31-.06-.34-.13-.03-.25.13-.35.38-.13.34-.77.23-1.18.13l-3.18-.77h-.02ZM82.05,60.18c.28.12.38.25.2.67-.3.68-1,.78-1.58.54-.79-.35-1-.79-.69-1.5.22-.51.41-.43.5-.39l1.57.68h0ZM78.73,57.3c-.26-.11-.52-.34-.48-.69,0-.09.03-.24-.1-.3-.13-.05-.18.06-.23.17-.14.32-.21.67-.35.98-.14.32-.34.61-.48.93-.16.36-.18.47-.07.51.13.05.21.02.26-.08.17-.32.43-.53,1.09-.25l1.35.59c.1.04.12.11.03.32-.13.3-.38.33-.69.37l-2.11.19c-.4.04-.68.25-.77.48-.12.26-.48,1.22-.14,1.37.09.04.16.03.2-.06.03-.07.05-.17.09-.26.03-.07.11-.12.23-.16.61-.2,2.59-.4,2.7-.34.08.03.03.28.05.48.05.41.21.8.75,1.04,1.31.57,1.99-.45,2.45-1.51.15-.35.34-.97.53-1.4.25-.56.4-.75.48-.94.09-.2.05-.25-.03-.28-.13-.05-.2,0-.26.08-.19.32-.45.52-.92.32l-3.58-1.56h0ZM75.5,62.49c-.12-.04-.2.08-.27.14-.37.39-.79.7-1.09,1.17-.7,1.09-.15,2.22.56,2.68,2.02,1.3,3.1-1.84,4.34-1.04.41.27.42.82.14,1.27-.36.55-1.24.86-1.88.69-.22-.06-.35-.1-.44.03-.07.1-.03.19.07.25.08.05.82.37,1.23.65.09.06.15.07.21-.03.04-.07.04-.29.09-.37.16-.24.68-.43,1.08-1.05.55-.86.27-1.91-.48-2.4-1.99-1.28-3.16,1.8-4.35,1.04-.54-.34-.58-.96-.25-1.47.44-.69,1.29-.89,2.04-.78.14.02.36.11.46-.04.08-.12.04-.19,0-.22-.07-.04-.19-.07-.27-.1l-1.18-.4v-.02ZM75.32,70.68c.22.18.47.4.33.73-.03.09-.15.29-.04.38.11.09.19,0,.27-.11.22-.27.39-.58.61-.85s.49-.49.71-.76c.16-.19.32-.39.21-.47-.11-.09-.2-.08-.28,0-.25.26-.56.39-.98.05l-3.02-2.48c-.22-.18-.44-.44-.3-.77.03-.08.09-.22,0-.31-.11-.09-.19,0-.3.14-.22.27-.39.59-.61.85-.22.27-.49.49-.66.7-.16.19-.32.39-.21.47.11.09.2.07.28,0,.13-.14.56-.4.98-.06l3.02,2.47v.02ZM69.92,70.86c-.47-.5-.03-.9.1-1.19.04-.09.17-.18.04-.32-.1-.11-.17-.03-.25.04-.38.35-.72.76-1.1,1.12-.39.36-.82.67-1.2,1.02-.07.07-.15.14-.06.24.13.14.22.02.32,0,.3-.1.72-.51,1.19,0l2.74,2.95c.19.21.15.38-.2.7-.61.57-.93.77-1.67.29-.04-.03-.09-.02-.17.05-.05.04-.09.13-.06.17.04.04.1.09.14.13l.66.59c.22.2.26.2.42.05.64-.59,1.24-1.25,1.89-1.85s1.34-1.15,1.99-1.75c.14-.14.15-.2.05-.32l-.54-.71c-.06-.08-.13-.18-.18-.24-.04-.04-.1-.05-.18.03-.07.06-.09.12-.06.16.42.78.2,1.08-.41,1.65-.3.28-.5.38-.72.14l-2.74-2.95h0ZM65.11,77.61c0-.17,0-.37.04-.4s.15,0,.39.14l1.46.8c.17.09.32.19.4.32.04.06,0,.15-.06.26-.07.13-.28.26-.2.38.07.11.2.03.33-.05.33-.21.61-.48.94-.7.33-.21.69-.37,1.02-.58.13-.09.25-.17.18-.28-.07-.12-.23-.05-.42.02-.21.1-.48.07-1.02-.22l-2.43-1.34c-.08-.03-.14-.08-.18-.15l-.59-.91c-.24-.36-.3-.69.04-.99.16-.13.3-.24.21-.38-.1-.15-.31-.02-.51.11-.33.21-.62.49-.87.64-.35.23-.71.38-1.04.59-.21.13-.41.27-.31.42.09.15.25.05.43-.04.41-.19.69,0,.93.37l.74,1.14c.08.13.08.29.08.5l.07,2.16c.02.64,0,.83-.16,1.07-.09.14-.15.18-.08.3.08.12.16.06.24,0,.25-.17.47-.39.72-.55.26-.17.55-.27.8-.44.09-.06.17-.11.09-.22-.07-.12-.16-.12-.26-.08-.37.13-.68.19-.81,0-.06-.1-.12-.23-.13-.43l-.06-1.47h.02ZM60.36,79.72c-.21,0-.39,0-.52-.02s-.24-.04-.32-.08c-.08-.03-.18-.09-.28-.17-.11-.09-.23-.2-.39-.36l-.06.02c0,.22-.02.4-.03.53-.02.13-.04.24-.07.32-.04.09-.1.18-.18.28-.09.11-.2.23-.35.38l.02.06c.22,0,.39,0,.52.03.13,0,.24.04.33.08.09.04.18.09.28.18.11.08.24.2.39.36l.06-.03c0-.22,0-.4.03-.52.02-.14.04-.24.08-.32.04-.09.09-.18.18-.28.08-.1.2-.23.35-.38l-.03-.06v-.02Z"/>
  </g>
</svg>